<?xml version="1.0" encoding="iso-8859-1"?>
<!-- Generator: Adobe Illustrator 16.0.0, SVG Export Plug-In . SVG Version: 6.00 Build 0)  -->
<!DOCTYPE svg PUBLIC "-//W3C//DTD SVG 1.1//EN" "http://www.w3.org/Graphics/SVG/1.1/DTD/svg11.dtd">
<svg version="1.1" id="Capa_1" xmlns="http://www.w3.org/2000/svg" xmlns:xlink="http://www.w3.org/1999/xlink" x="0px" y="0px"
	 width="65.403px" height="65.402px" viewBox="0 0 65.403 65.402" style="enable-background:new 0 0 65.403 65.402;"
	 xml:space="preserve">
<g>
	<path d="M32.702,0C14.641,0,0,14.641,0,32.701c0,18.062,14.641,32.701,32.702,32.701c18.062,0,32.701-14.64,32.701-32.701
		C65.403,14.641,50.763,0,32.702,0z M40.649,35.768c0.723-4.216,5.903-4.216,6.549-13.944c3.234,7.337,1.221,11.805,1.221,13.944
		c0,2.144-1.738,3.882-3.883,3.882S40.295,37.879,40.649,35.768z M35.907,13.912c3.451,7.337,2.445,17.409,2.445,19.551
		c0,2.146-1.738,3.885-3.883,3.885c-2.146,0-3.883-1.738-3.883-3.885C30.586,27.864,36.194,22.83,35.907,13.912z M26.126,14.632
		c-2.013,7.05,0.92,16.692,0.92,18.831c0,2.146-1.743,3.885-3.887,3.885c-2.142,0-3.88-1.738-3.88-3.885
		C19.277,31.321,20.604,20.53,26.126,14.632z M10.449,31.884c0.159-2.14,2.445,6.799,7.533,6.181
		c2.132-0.258,3.883,1.745,3.883,3.887c0,2.146-1.737,3.885-3.883,3.885C15.834,45.836,9.584,43.688,10.449,31.884z M42.095,50.015
		c-1.154,1.87-7.915,0-10.394,0c-2.48,0-9.312,3.385-10.896,0.83c-1.584-2.557,6.83-9.893,10.896-10.109
		C35.763,40.521,43.245,48.145,42.095,50.015z M47.198,48.71c-1.866,0-3.381-1.515-3.381-3.378c0-1.868,1.515-3.381,3.381-3.381
		c1.863,0,4.528,0.44,7.836-2.302C53.596,45.124,49.061,48.71,47.198,48.71z"/>
</g>
<g>
</g>
<g>
</g>
<g>
</g>
<g>
</g>
<g>
</g>
<g>
</g>
<g>
</g>
<g>
</g>
<g>
</g>
<g>
</g>
<g>
</g>
<g>
</g>
<g>
</g>
<g>
</g>
<g>
</g>
</svg>
